<svg viewBox="0 0 880 120" xmlns="http://www.w3.org/2000/svg" width="880" height="120">
  <rect width="880" height="120" fill="#1E3A8A"/>
  <rect x="0" y="108" width="880" height="4" fill="#172554"/>
  <rect x="0" y="0" width="4" height="120" fill="#172554"/>
  <rect x="876" y="0" width="4" height="120" fill="#172554"/>
  <g transform="translate(28, 36) scale(0.85)">
    <g fill="none" stroke="#FFFFFF" stroke-width="3.4" stroke-linejoin="round" stroke-linecap="round">
      <path d="M 30,5 L 55,20 L 30,35 L 5,20 Z"/>
      <path d="M 15,24 L 15,34 C 15,40 22,45 30,45 C 38,45 45,40 45,34 L 45,24"/>
      <path d="M 51,21 L 51,38"/>
    </g>
    <circle cx="51" cy="41" r="3" fill="#FFFFFF"/>
  </g>
  <text x="102" y="52" fill="#DBEAFE" font-family="Georgia,serif" font-size="30" font-weight="700" letter-spacing="-0.5">Deskwise</text>
  <text x="103" y="74" fill="#60A5FA" font-family="'Courier New',monospace" font-size="13" letter-spacing="1">SCHOOL MANAGEMENT SYSTEM</text>
  <rect x="102" y="83" width="220" height="1" fill="#3B82F6" opacity="0.5"/>
  <text x="103" y="98" fill="#3B82F6" font-family="'Courier New',monospace" font-size="11">Offline-First · AES-256 · Built for India</text>
  <rect x="340" y="30" width="1" height="60" fill="#3B82F6" opacity="0.2"/>
  <rect x="680" y="30" width="1" height="60" fill="#3B82F6" opacity="0.2"/>
</svg>
